<?xml version="1.0" encoding="UTF-8"?>
<svg id="Layer_1" xmlns="http://www.w3.org/2000/svg" version="1.1" xmlns:xlink="http://www.w3.org/1999/xlink" viewBox="0 0 1920 1080">
  <!-- Generator: Adobe Illustrator 29.5.1, SVG Export Plug-In . SVG Version: 2.1.0 Build 141)  -->
  <defs>
    <style>
      .st0 {
        clip-path: url(#clippath-6);
      }

      .st1 {
        clip-path: url(#clippath-7);
      }

      .st2 {
        clip-path: url(#clippath-4);
      }

      .st3 {
        fill: #3871c1;
      }

      .st4 {
        fill: #fff;
      }

      .st5 {
        fill: none;
      }

      .st6 {
        clip-path: url(#clippath-1);
      }

      .st7 {
        clip-path: url(#clippath-5);
      }

      .st8 {
        clip-path: url(#clippath-3);
      }

      .st9 {
        fill: #51ade5;
      }

      .st10 {
        clip-path: url(#clippath-2);
      }

      .st11 {
        fill: #1351aa;
      }

      .st12 {
        clip-path: url(#clippath);
      }

      .st13 {
        fill: #4f4c4c;
      }
    </style>
    <clipPath id="clippath">
      <rect class="st5" x="283.71" y="248.5" width="572" height="284.33"/>
    </clipPath>
    <clipPath id="clippath-1">
      <rect class="st5" x="273.34" y="430.17" width="351.7" height="220"/>
    </clipPath>
    <clipPath id="clippath-2">
      <rect class="st5" x="284.07" y="520.83" width="572.27" height="310.67"/>
    </clipPath>
    <clipPath id="clippath-3">
      <rect class="st5" x="275.1" y="250.23" width="580.61" height="572.64"/>
    </clipPath>
    <clipPath id="clippath-4">
      <ellipse class="st5" cx="564.95" cy="536.55" rx="289.85" ry="286.32"/>
    </clipPath>
    <clipPath id="clippath-5">
      <rect class="st5" x="283.71" y="248.5" width="572" height="284.33"/>
    </clipPath>
    <clipPath id="clippath-6">
      <rect class="st5" x="273.34" y="430.17" width="351.7" height="220"/>
    </clipPath>
    <clipPath id="clippath-7">
      <rect class="st5" x="284.07" y="520.83" width="572.27" height="310.67"/>
    </clipPath>
  </defs>
  <g id="_x37_fab10ebae">
    <g class="st12">
      <path class="st9" d="M363.16,405.23c-30.24,16.04-56.2,34.26-78.48,54.04,35.01-121.72,147.19-210.76,280.17-210.76,153.85,0,279.86,119.19,290.73,270.28-161.4,77.6-300.85-215.16-492.43-113.56"/>
    </g>
    <g class="st6">
      <path class="st3" d="M414.13,629.96c-49.68,0-89.95-40.27-89.95-89.95,0-8.98,1.33-17.64,3.78-25.82,4.54,4.65,10.86,7.53,17.87,7.53,13.81,0,25.01-11.2,25.01-25.01,0-10.93-7.03-20.21-16.81-23.61,15.94-14.31,37-23.04,60.11-23.04,49.68,0,89.94,40.26,89.94,89.94s-40.27,89.95-89.94,89.95ZM304.81,452.97c-7.56,4.02-14.8,8.18-21.83,12.46-6.28,23.8-9.65,48.8-9.65,74.58s3.36,50.78,9.65,74.59c7.03,4.28,14.22,8.55,21.83,12.46,124.79,64.21,243.92-24.54,319.72-87.03-98.22-57.8-198.54-151.34-319.72-87.07"/>
    </g>
    <g class="st10">
      <path class="st9" d="M855.79,521.97c-53.88,56.69-104.58,65.73-154.56,52.53-97.23,58.97-220.08,162.88-338.07,100.3-30.24-16.04-56.2-34.26-78.49-54.03,35.02,121.71,147.2,210.76,280.18,210.76,160.99,0,291.5-130.52,291.5-291.51,0-6.06-.2-12.07-.56-18.05"/>
    </g>
    <path class="st13" d="M414.13,496.72c23.91,0,43.29,19.38,43.29,43.3,0,6.68-1.55,12.97-4.24,18.61-1.85-2.86-5.06-4.78-8.72-4.78-5.74,0-10.4,4.66-10.4,10.4,0,4.5,2.88,8.29,6.87,9.74-7.38,5.83-16.67,9.33-26.79,9.33-23.92,0-43.3-19.39-43.3-43.3s19.39-43.3,43.3-43.3"/>
    <g class="st8">
      <g class="st2">
        <path class="st4" d="M275.1,250.23h579.35v572.64H275.1V250.23Z"/>
      </g>
    </g>
    <g class="st7">
      <path class="st9" d="M363.16,405.23c-30.24,16.04-56.2,34.26-78.48,54.04,35.01-121.72,147.19-210.76,280.17-210.76,153.85,0,279.86,119.19,290.73,270.28-161.4,77.6-300.85-215.16-492.43-113.56"/>
    </g>
    <g class="st0">
      <path class="st3" d="M414.13,629.96c-49.68,0-89.95-40.27-89.95-89.95,0-8.98,1.33-17.64,3.78-25.82,4.54,4.65,10.86,7.53,17.87,7.53,13.81,0,25.01-11.2,25.01-25.01,0-10.93-7.03-20.21-16.81-23.61,15.94-14.31,37-23.04,60.11-23.04,49.68,0,89.94,40.26,89.94,89.94s-40.27,89.95-89.94,89.95ZM304.81,452.97c-7.56,4.02-14.8,8.18-21.83,12.46-6.28,23.8-9.65,48.8-9.65,74.58s3.36,50.78,9.65,74.59c7.03,4.28,14.22,8.55,21.83,12.46,124.79,64.21,243.92-24.54,319.72-87.03-98.22-57.8-198.54-151.34-319.72-87.07"/>
    </g>
    <g class="st1">
      <path class="st9" d="M855.79,521.97c-53.88,56.69-104.58,65.73-154.56,52.53-97.23,58.97-220.08,162.88-338.07,100.3-30.24-16.04-56.2-34.26-78.49-54.03,35.02,121.71,147.2,210.76,280.18,210.76,160.99,0,291.5-130.52,291.5-291.51,0-6.06-.2-12.07-.56-18.05"/>
    </g>
    <path class="st13" d="M414.13,496.72c23.91,0,43.29,19.38,43.29,43.3,0,6.68-1.55,12.97-4.24,18.61-1.85-2.86-5.06-4.78-8.72-4.78-5.74,0-10.4,4.66-10.4,10.4,0,4.5,2.88,8.29,6.87,9.74-7.38,5.83-16.67,9.33-26.79,9.33-23.92,0-43.3-19.39-43.3-43.3s19.39-43.3,43.3-43.3"/>
    <path class="st11" d="M913.17,615.16c14.75,4.45,29.63,12.93,44.65,25.44l-35.88,47.56c-13.36-8.06-24.15-13.55-32.35-16.48-8.2-2.92-17.16-4.38-26.9-4.38-5.85,0-10.93.28-15.25.83-4.31.55-9.38,1.53-15.21,2.92-8.63,1.94-18.5,2.92-29.63,2.92-29.77,0-55.7-6.05-77.81-18.15-22.11-12.09-39.22-29.34-51.33-51.73-12.1-22.39-18.15-49.02-18.15-79.9s6.05-57.57,18.15-80.1c12.11-22.54,29.22-39.86,51.33-51.96,22.11-12.09,48.05-18.15,77.81-18.15s56.05,6.05,78.02,18.15c21.97,12.1,39.01,29.42,51.1,51.96,12.11,22.53,18.17,49.23,18.17,80.1,0,17.52-3.06,34.2-9.19,50.06-6.13,15.85-15.31,29.48-27.54,40.9ZM732.09,524.21c0,30.32,6.32,53.69,18.98,70.1,12.67,16.41,29.84,24.6,51.54,24.6s38.86-8.2,51.52-24.6c12.67-16.42,19-39.78,19-70.1s-6.33-54.09-19-70.5c-12.66-16.42-29.83-24.63-51.52-24.63s-38.88,8.21-51.54,24.63c-12.66,16.41-18.98,39.91-18.98,70.5Z"/>
    <path class="st3" d="M1074.23,374.41c25.3,0,45.95,4.18,61.94,12.52,16,8.35,28.17,19.68,36.52,34,8.34,14.32,13.49,30.39,15.44,48.19h-75.1c-1.67-11.96-5.77-21.55-12.31-28.77-6.53-7.23-15.91-10.85-28.15-10.85-8.63,0-15.58,2.08-20.88,6.25-5.28,4.17-7.92,10.7-7.92,19.6s4.23,16.91,12.71,23.17c8.48,6.25,24.55,12.16,48.21,17.73,31.71,7.52,54.51,18.99,68.42,34.44,13.9,15.43,20.85,34.27,20.85,56.52,0,19.2-5.43,35.19-16.27,47.98-10.85,12.79-24.83,22.46-41.94,29-17.1,6.53-35.39,9.79-54.85,9.79-36.43,0-66.13-7.57-89.08-22.73-22.95-15.17-35.53-38.88-37.75-71.15h75.1c2.5,13.64,8.61,23.52,18.35,29.65,9.73,6.11,20.17,9.17,31.29,9.17s19.32-2.5,26.27-7.5c6.96-5.01,10.44-11.42,10.44-19.21s-3.27-14.4-9.81-20.65c-6.53-6.26-18.7-11.61-36.5-16.06-21.7-5.57-40.33-11.96-55.92-19.19-15.57-7.23-27.46-16.76-35.67-28.58-8.2-11.83-12.29-27.34-12.29-46.52s5.07-34.35,15.23-47.15c10.15-12.8,23.5-22.61,40.04-29.42,16.55-6.82,34.43-10.23,53.63-10.23Z"/>
    <path class="st3" d="M1418.86,553.83c0,6.95-.43,14.18-1.27,21.69h-155.21c1.96,18.64,6.69,31.23,14.19,37.77,7.51,6.53,16.55,9.79,27.13,9.79s19.05-2.5,25.44-7.5c6.4-5.01,10.3-11.83,11.71-20.46h73.83c-6.39,25.32-19.46,44.79-39.21,58.42s-43.95,20.44-72.6,20.44c-21.14,0-40.41-4.24-57.79-12.71-17.38-8.48-31.21-21.35-41.5-38.6s-15.44-38.94-15.44-65.08c0-21.69,4.72-41.51,14.17-59.46,9.46-17.94,23.09-32.2,40.9-42.77,17.8-10.57,39.08-15.85,63.83-15.85,18.64,0,34.91,3.2,48.81,9.6,13.92,6.39,25.53,15.02,34.85,25.88,9.32,10.85,16.34,23.08,21.06,36.71,4.73,13.63,7.1,27.68,7.1,42.15ZM1303.28,490.41c-9.74,0-17.95,3.06-24.63,9.19-6.67,6.11-11.25,16.12-13.75,30.02h75.52c-4.18-26.14-16.56-39.21-37.15-39.21Z"/>
    <path class="st3" d="M1646.66,553.83c0,6.95-.43,14.18-1.27,21.69h-155.21c1.96,18.64,6.69,31.23,14.19,37.77,7.51,6.53,16.55,9.79,27.13,9.79s19.05-2.5,25.44-7.5c6.4-5.01,10.3-11.83,11.71-20.46h73.83c-6.39,25.32-19.46,44.79-39.21,58.42s-43.95,20.44-72.6,20.44c-21.14,0-40.41-4.24-57.79-12.71-17.38-8.48-31.21-21.35-41.5-38.6s-15.44-38.94-15.44-65.08c0-21.69,4.72-41.51,14.17-59.46,9.46-17.94,23.09-32.2,40.9-42.77,17.8-10.57,39.08-15.85,63.83-15.85,18.64,0,34.91,3.2,48.81,9.6,13.92,6.39,25.53,15.02,34.85,25.88,9.32,10.85,16.34,23.08,21.06,36.71,4.73,13.63,7.1,27.68,7.1,42.15ZM1531.08,490.41c-9.74,0-17.95,3.06-24.63,9.19-6.67,6.11-11.25,16.12-13.75,30.02h75.52c-4.18-26.14-16.56-39.21-37.15-39.21Z"/>
  </g>
</svg>